# xmcd
#
# Track frame offsets:
# 150
# 14927
# 28660
# 40322
# 54419
# 68516
# 85178
# 96936
# 111899
# 130339
# 141532
# 151146
# 165492
# 179548
# 190207
# 202631
# 218687
# 229708
# 248591
# 261134
#
# Disc length: 3677 seconds
#
#
# Revision: 0
# Processed by: cddbd v1.5.1PL2 Copyright (c) Steve Scherf et al.
# Submitted via: FreeRIP 2.945 
#
DISCID=120e5b14
DTITLE=Fevers - Para Sempre Fevers
DYEAR=1900
DGENRE=Latin
TTITLE0=Vem Me Ajudar
TTITLE1=Mar de Rosas
TTITLE2=De Que Vale Tanto Amor
TTITLE3=Paloma Blanca
TTITLE4=Angel Baby
TTITLE5=Sou Assim
TTITLE6=Não Devo Mais Ficar
TTITLE7=Onde Estão Teus Olhos Negros
TTITLE8=Ninguém Vive Sem Amor
TTITLE9=Já cansei
TTITLE10=Agora Eu Sei
TTITLE11=Cândida
TTITLE12=Hey Girl
TTITLE13=Sou Feliz
TTITLE14=Barbarella
TTITLE15=Se Você Me Quiser
TTITLE16=Você Morreu Pra Mim
TTITLE17=Deus
TTITLE18=Nathalie
TTITLE19=Marcas Do Que Se Foi
EXTD=
EXTT0=
EXTT1=
EXTT2=
EXTT3=
EXTT4=
EXTT5=
EXTT6=
EXTT7=
EXTT8=
EXTT9=
EXTT10=
EXTT11=
EXTT12=
EXTT13=
EXTT14=
EXTT15=
EXTT16=
EXTT17=
EXTT18=
EXTT19=
PLAYORDER=
